<svg width="30" height="31" viewBox="0 0 30 31" fill="none" xmlns="http://www.w3.org/2000/svg">
<mask id="mask0_52_490" style="mask-type:alpha" maskUnits="userSpaceOnUse" x="0" y="0" width="30" height="31">
<rect y="0.416992" width="30" height="30" fill="#D9D9D9"/>
</mask>
<g mask="url(#mask0_52_490)">
<path d="M15 27.917C12.7917 27.917 10.9896 27.568 9.59375 26.8701C8.19792 26.1722 7.5 25.2712 7.5 24.167C7.5 23.4378 7.80208 22.8024 8.40625 22.2607C9.01042 21.7191 9.84375 21.292 10.9063 20.9795L11.625 23.3545C11.2708 23.4587 10.9479 23.5889 10.6562 23.7451C10.3646 23.9014 10.1667 24.042 10.0625 24.167C10.3333 24.5003 10.9583 24.792 11.9375 25.042C12.9167 25.292 13.9375 25.417 15 25.417C16.0625 25.417 17.0885 25.292 18.0781 25.042C19.0677 24.792 19.6979 24.5003 19.9688 24.167C19.8646 24.042 19.6667 23.9014 19.375 23.7451C19.0833 23.5889 18.7604 23.4587 18.4062 23.3545L19.125 20.9795C20.1875 21.292 21.0156 21.7191 21.6094 22.2607C22.2031 22.8024 22.5 23.4378 22.5 24.167C22.5 25.2712 21.8021 26.1722 20.4062 26.8701C19.0104 27.568 17.2083 27.917 15 27.917ZM15 19.5732C15.375 18.8857 15.7708 18.2555 16.1875 17.6826C16.6042 17.1097 17.0104 16.5628 17.4062 16.042C18.1771 15.042 18.7917 14.141 19.25 13.3389C19.7083 12.5368 19.9375 11.542 19.9375 10.3545C19.9375 8.97949 19.4583 7.81283 18.5 6.85449C17.5417 5.89616 16.375 5.41699 15 5.41699C13.625 5.41699 12.4583 5.89616 11.5 6.85449C10.5417 7.81283 10.0625 8.97949 10.0625 10.3545C10.0625 11.542 10.2917 12.5368 10.75 13.3389C11.2083 14.141 11.8229 15.042 12.5938 16.042C12.9896 16.5628 13.3958 17.1097 13.8125 17.6826C14.2292 18.2555 14.625 18.8857 15 19.5732ZM15 24.167C14.7708 24.167 14.5625 24.0993 14.375 23.9639C14.1875 23.8284 14.0521 23.6462 13.9688 23.417C13.4896 21.9378 12.8854 20.6982 12.1562 19.6982C11.4271 18.6982 10.7188 17.7399 10.0312 16.8232C9.36458 15.9066 8.78646 14.9587 8.29688 13.9795C7.80729 13.0003 7.5625 11.792 7.5625 10.3545C7.5625 8.27116 8.28125 6.51074 9.71875 5.07324C11.1562 3.63574 12.9167 2.91699 15 2.91699C17.0833 2.91699 18.8438 3.63574 20.2812 5.07324C21.7188 6.51074 22.4375 8.27116 22.4375 10.3545C22.4375 11.792 22.1979 13.0003 21.7188 13.9795C21.2396 14.9587 20.6563 15.9066 19.9688 16.8232C19.3021 17.7399 18.599 18.6982 17.8594 19.6982C17.1198 20.6982 16.5104 21.9378 16.0312 23.417C15.9479 23.6462 15.8125 23.8284 15.625 23.9639C15.4375 24.0993 15.2292 24.167 15 24.167ZM15 13.0107C15.7292 13.0107 16.3542 12.7503 16.875 12.2295C17.3958 11.7087 17.6562 11.0837 17.6562 10.3545C17.6562 9.62533 17.3958 9.00033 16.875 8.47949C16.3542 7.95866 15.7292 7.69824 15 7.69824C14.2708 7.69824 13.6458 7.95866 13.125 8.47949C12.6042 9.00033 12.3438 9.62533 12.3438 10.3545C12.3438 11.0837 12.6042 11.7087 13.125 12.2295C13.6458 12.7503 14.2708 13.0107 15 13.0107Z" fill="#2A9D8F"/>
</g>
</svg>
