<svg width="30" height="26" viewBox="0 0 30 26" fill="none" xmlns="http://www.w3.org/2000/svg">
<mask id="mask0_52_498" style="mask-type:alpha" maskUnits="userSpaceOnUse" x="0" y="0" width="30" height="26">
<rect y="0.416992" width="30" height="25" fill="#D9D9D9"/>
</mask>
<g mask="url(#mask0_52_498)">
<path d="M5.00024 21.2507C4.31274 21.2507 3.7242 21.0467 3.23462 20.6387C2.74504 20.2307 2.50024 19.7402 2.50024 19.1673V6.66732C2.50024 6.0944 2.74504 5.60395 3.23462 5.19596C3.7242 4.78798 4.31274 4.58398 5.00024 4.58398H25.0002C25.6877 4.58398 26.2763 4.78798 26.7659 5.19596C27.2555 5.60395 27.5002 6.0944 27.5002 6.66732V19.1673C27.5002 19.7402 27.2555 20.2307 26.7659 20.6387C26.2763 21.0467 25.6877 21.2507 25.0002 21.2507H5.00024ZM15.0002 13.959L5.00024 8.75065V19.1673H25.0002V8.75065L15.0002 13.959ZM15.0002 11.8757L25.0002 6.66732H5.00024L15.0002 11.8757ZM5.00024 8.75065V6.66732V19.1673V8.75065Z" fill="#2A9D8F"/>
</g>
</svg>
