<svg width="25" height="26" viewBox="0 0 25 26" fill="none" xmlns="http://www.w3.org/2000/svg">
<path d="M24.9992 19.1343V22.8978C25.0006 23.2472 24.9289 23.593 24.7887 23.9131C24.6484 24.2333 24.4428 24.5206 24.1848 24.7568C23.9268 24.993 23.6223 25.1728 23.2907 25.2848C22.959 25.3967 22.6076 25.4383 22.259 25.4068C18.391 24.9874 14.6755 23.6683 11.4111 21.5555C8.37402 19.6294 5.79908 17.0596 3.86917 14.0285C1.74483 10.7557 0.422802 7.02959 0.0102026 3.15193C-0.021209 2.80502 0.0201014 2.45538 0.131503 2.12528C0.242905 1.79517 0.421957 1.49183 0.65726 1.23457C0.892563 0.977316 1.17896 0.771773 1.49822 0.631034C1.81748 0.490295 2.1626 0.417442 2.51162 0.417114H6.2826C6.89262 0.411122 7.48402 0.626714 7.94656 1.02371C8.40909 1.4207 8.71121 1.972 8.79658 2.57486C8.95575 3.77926 9.25092 4.96183 9.67648 6.10001C9.8456 6.54903 9.8822 7.03702 9.78195 7.50616C9.6817 7.9753 9.44879 8.40593 9.11083 8.74701L7.51445 10.3402C9.30385 13.4809 11.9095 16.0814 15.0564 17.8672L16.6528 16.274C16.9946 15.9367 17.426 15.7043 17.8961 15.6042C18.3662 15.5042 18.8551 15.5407 19.305 15.7095C20.4455 16.1342 21.6304 16.4288 22.8372 16.5877C23.4478 16.6736 24.0054 16.9806 24.4041 17.4501C24.8027 17.9197 25.0145 18.5191 24.9992 19.1343Z" fill="#2A9D8F"/>
</svg>
